<?xml version="1.0" encoding="utf-8"?>
<!-- Generator: Adobe Illustrator 23.0.1, SVG Export Plug-In . SVG Version: 6.00 Build 0)  -->
<svg version="1.1"
	 id="Layer_1" image-rendering="optimizeQuality" text-rendering="geometricPrecision" shape-rendering="geometricPrecision"
	 xmlns="http://www.w3.org/2000/svg" xmlns:xlink="http://www.w3.org/1999/xlink" x="0px" y="0px" viewBox="0 0 64 64"
	 style="enable-background:new 0 0 64 64;" xml:space="preserve">
<style type="text/css">
	.st0{fill-rule:evenodd;clip-rule:evenodd;fill:#220000;}
</style>
<path class="st0" d="M32,0c17.7,0,32,14.3,32,32S49.7,64,32,64S0,49.7,0,32S14.3,0,32,0z M51.3,19.3l-32,32c3.6,2.4,8,3.8,12.7,3.8
	c12.8,0,23.1-10.3,23.1-23.1C55.1,27.3,53.7,22.9,51.3,19.3L51.3,19.3z M12.7,44.7l32-32c-3.6-2.4-8-3.8-12.7-3.8
	C19.2,8.9,8.9,19.2,8.9,32C8.9,36.7,10.3,41.1,12.7,44.7L12.7,44.7z"/>
</svg>
