<?xml version="1.0" encoding="utf-8"?>
<!-- Generator: Adobe Illustrator 23.0.1, SVG Export Plug-In . SVG Version: 6.00 Build 0)  -->
<svg version="1.1"
	 id="Layer_1" image-rendering="optimizeQuality" text-rendering="geometricPrecision" shape-rendering="geometricPrecision"
	 xmlns="http://www.w3.org/2000/svg" xmlns:xlink="http://www.w3.org/1999/xlink" x="0px" y="0px" viewBox="0 0 64 64"
	 style="enable-background:new 0 0 64 64;" xml:space="preserve">
<style type="text/css">
	.st0{fill:#401C0E;}
</style>
<path class="st0" d="M2.3,38.8C0.8,37.4,0,35.5,0,33.6c0-1.9,0.7-3.9,2.1-5.4s3.3-2.3,5.3-2.3c1.9,0,3.9,0.7,5.4,2.1l12.9,12.4
	L51.3,7.8l0.9,0.7l-0.9-0.7c0.1-0.1,0.2-0.2,0.3-0.2c1.5-1.3,3.4-1.9,5.3-1.8l0,0H57c1.9,0.1,3.7,1,5.1,2.5c1.4,1.5,2,3.5,1.9,5.4
	l0,0v0.1c-0.1,1.9-0.9,3.7-2.4,5L30.7,56.3l0,0c-0.1,0.1-0.1,0.1-0.2,0.2c-1.4,1.3-3.3,1.9-5.1,1.9c-1.8,0-3.7-0.7-5.1-2.1L2.3,38.8
	L2.3,38.8z"/>
</svg>
