<?xml version="1.0" encoding="utf-8"?>
<!-- Generator: Adobe Illustrator 23.0.1, SVG Export Plug-In . SVG Version: 6.00 Build 0)  -->
<svg version="1.1"
	 id="Layer_1" image-rendering="optimizeQuality" text-rendering="geometricPrecision" shape-rendering="geometricPrecision"
	 xmlns="http://www.w3.org/2000/svg" xmlns:xlink="http://www.w3.org/1999/xlink" x="0px" y="0px" viewBox="0 0 64 64"
	 style="enable-background:new 0 0 64 64;" xml:space="preserve">
<style type="text/css">
	.st0{fill-rule:evenodd;clip-rule:evenodd;fill:#220000;}
</style>
<path class="st0" d="M34,0c2.3,0,4.1,0.7,5.5,2c1.3,1.3,2,3.1,2,5.5c0,2.4-1.1,4.5-3.4,6.3c-2.3,1.8-4.9,2.8-7.9,2.8
	c-2.3,0-4.1-0.6-5.5-1.9c-1.4-1.3-2.1-3-2.1-5c0-2.6,1.1-4.9,3.4-6.8C28.2,0.9,30.9,0,34,0L34,0z M46.9,64H17.1v-5h5.6V28.3h-5.6v-4
	H31c3.5,0,7-0.4,10.4-1.3V59h5.5L46.9,64L46.9,64z"/>
</svg>
