<svg xmlns="http://www.w3.org/2000/svg" viewBox="0 0 225 225"><defs><style>.cls-1{fill:#0a0a0a;}</style></defs><title>Asset 1</title><g id="Layer_2" data-name="Layer 2"><g id="Layer_1-2" data-name="Layer 1"><path class="cls-1" d="M0,123V100c.59-2.92,1.22-5.83,1.75-8.76C9.72,47.83,44.52,12,87.87,2.63,92.23,1.69,96.62.87,101,0h15a8,8,0,0,1,3.58,6.2A20,20,0,0,0,126,19.38a44.69,44.69,0,0,0,5.69,4c3.6,2.37,4.28,4.65,2.36,8.4-.46.89-1,1.71-1.49,2.6a21.19,21.19,0,0,0,14.87,30.54,42,42,0,0,0,5.94.62c4.29.23,5.85,1.77,6.07,6.16.05.84,0,1.68,0,2.5.76,8.22,4.44,14.64,12,18.36,7.09,3.51,14.12,2.92,21-1,4.84-2.79,6.9-2.2,9.69,2.68,3.64,6.36,9,10.15,16.25,11.1,2.8.37,5.11,1.26,6.68,3.69v14q-.84,4.64-1.67,9.28a112.55,112.55,0,0,1-86.19,90.06c-4.68,1-9.42,1.78-14.14,2.66H102c-4.08-.68-8.2-1.2-12.25-2.06-47.58-10.11-78.9-47-87.11-85.77C1.65,132.47.87,127.72,0,123ZM17.23,78.6C1.9,117.32,13.94,173.17,62.56,200.9c45.85,26.16,101,10.51,126.89-23-9.25-10-11.29-19.85-6.08-29.33s14.46-13.23,27.32-11.06a67.63,67.63,0,0,0,3-21.58,34.48,34.48,0,0,1-19.36-12.84c-10.32,4.32-20.15,3.86-29.6-1.46-9.66-5.44-14.63-14.17-16.38-24.76-24.75-4.82-34.4-26.44-26.64-46.39A35,35,0,0,1,108.93,11C82.54,12.26,60.2,22,41.3,40.15c9.53,10.15,8.64,21.69,3.87,29.25C39.5,78.41,29.82,81.66,17.23,78.6Zm179.63,90.32c4.27-6.62,7.94-13,10.22-20.15-6.56-1.63-11.24.2-13.93,5.16C190.55,158.74,191.82,164.36,196.86,168.92ZM21.45,67.71C27.87,69.86,33.09,68,36,62.94c2.83-4.9,2-9.86-2.58-13.84A86.15,86.15,0,0,0,21.45,67.71Z"/><path class="cls-1" d="M103.75,140.1a29.26,29.26,0,0,1,58.51.41c.15,13.41-10.26,29.1-29.24,29.16A28.76,28.76,0,0,1,103.75,140.1Zm11.21.28a18,18,0,1,0,17.92-18.17C122.9,122.31,114.53,130.83,115,140.38Z"/><path class="cls-1" d="M85.91,99.05A23,23,0,0,1,63.32,75.79c0-12.17,10.39-22.4,22.82-22.45a23.12,23.12,0,0,1,22.92,23C109.11,88.58,98.34,99.17,85.91,99.05ZM97.8,76.28A11.85,11.85,0,0,0,86.17,64.4,12,12,0,0,0,74.41,76.23,11.9,11.9,0,0,0,85.88,87.8,11.7,11.7,0,0,0,97.8,76.28Z"/><path class="cls-1" d="M70.83,180.39c-12.72-.13-22.5-10.2-22.49-23.15,0-12.06,10.63-22.45,22.92-22.41s23,10.55,22.78,23.11C93.76,172.37,81.49,181.08,70.83,180.39Zm.52-34.24a11.73,11.73,0,0,0-11.93,11.5,12,12,0,0,0,11.84,11.76A11.75,11.75,0,0,0,82.81,158,11.41,11.41,0,0,0,71.35,146.15Z"/></g></g></svg>